<svg width="139" height="59" viewBox="0 0 139 59" fill="none" xmlns="http://www.w3.org/2000/svg">
<path d="M91.8089 54.2313V48.6215C91.8089 48.3922 91.6207 48.2051 91.3901 48.2051C91.1596 48.2051 90.9714 48.3922 90.9714 48.6215V54.2313C90.995 55.1296 91.6113 55.911 92.4816 56.1449V58.4656C92.4816 58.6948 92.6698 58.882 92.9003 58.882C93.1308 58.882 93.319 58.6948 93.319 58.4656V56.1356C94.1988 55.911 94.8198 55.1343 94.8292 54.2313V48.6215C94.8292 48.3922 94.641 48.2051 94.4105 48.2051C94.1799 48.2051 93.9918 48.3922 93.9918 48.6215V54.2313C94.0059 54.629 93.7989 55.0033 93.4554 55.2045C93.112 55.4057 92.6839 55.4057 92.3405 55.2045C91.997 55.0033 91.79 54.629 91.8042 54.2313M86.8268 52.4955H85.7494V56.945V56.9543C85.74 57.324 85.7447 57.7217 85.7494 58.0585C86.3234 58.0726 87.0996 58.0726 87.3819 57.9088C87.5513 57.8106 87.6877 57.6702 87.7771 57.5017C87.8665 57.3474 87.9135 57.1696 87.9135 56.9824C87.9135 56.9684 87.9135 56.9543 87.9135 56.9403V53.4172C87.8759 53.1552 87.7441 52.9259 87.556 52.7622C87.3631 52.5937 87.109 52.4908 86.8315 52.4908L86.8268 52.4955ZM88.7321 50.2684V50.7737C88.7321 51.265 88.5063 51.6907 88.1534 51.9995C88.1111 52.037 88.0735 52.0697 88.0264 52.1025C88.0499 52.1212 88.0688 52.1399 88.0923 52.1586C88.431 52.4581 88.6662 52.8791 88.7274 53.3564C88.7274 53.3751 88.7274 53.3891 88.7274 53.4078V56.959V56.9871C88.7274 57.3193 88.6427 57.6374 88.4875 57.9182C88.3275 58.2082 88.0876 58.4562 87.7865 58.634C87.2925 58.9241 86.2904 58.9101 85.6224 58.9007C85.5659 58.9007 85.5189 58.9007 85.326 58.9007C85.0955 58.9007 84.912 58.7182 84.912 58.489C84.912 58.2036 84.912 58.1474 84.912 58.0866C84.912 57.745 84.9026 57.3427 84.912 56.9684V48.7665C84.912 48.5373 85.0955 48.3548 85.326 48.3548C85.5801 48.3548 85.6647 48.3548 85.7447 48.3548C86.5163 48.3454 87.2972 48.3361 87.7865 48.6215C88.0876 48.7946 88.3228 49.0426 88.4875 49.3373C88.6427 49.6181 88.7274 49.9362 88.7274 50.2684V50.2965L88.7321 50.2684ZM114.536 52.4955H113.459V56.9497V56.959C113.45 57.3286 113.454 57.7263 113.459 58.0632C114.033 58.0772 114.809 58.0772 115.092 57.9135C115.261 57.8152 115.397 57.6749 115.487 57.5064C115.576 57.352 115.623 57.1742 115.623 56.9871C115.623 56.9731 115.623 56.959 115.623 56.945V53.4219C115.586 53.1599 115.454 52.9306 115.266 52.7669C115.073 52.5984 114.819 52.4955 114.541 52.4955H114.536ZM116.446 50.2637V50.769C116.446 51.2603 116.221 51.6861 115.868 51.9949C115.825 52.0323 115.788 52.065 115.741 52.0978C115.764 52.1165 115.783 52.1352 115.807 52.1539C116.145 52.4534 116.381 52.8745 116.442 53.3517C116.442 53.3704 116.442 53.3845 116.442 53.4032V56.9543V56.9824C116.442 57.3146 116.357 57.6328 116.202 57.9135C116.042 58.2036 115.802 58.4515 115.501 58.6293C115.002 58.9194 114.005 58.9054 113.337 58.896C113.28 58.896 113.233 58.896 113.04 58.896C112.81 58.896 112.626 58.7135 112.626 58.4843C112.626 58.1989 112.626 58.1427 112.626 58.0819C112.626 57.7404 112.622 57.338 112.626 56.9637V48.7572C112.626 48.5279 112.81 48.3454 113.04 48.3454C113.294 48.3454 113.379 48.3454 113.459 48.3454C114.231 48.3361 115.012 48.3267 115.501 48.6121C115.802 48.7852 116.037 49.0379 116.202 49.328C116.357 49.6087 116.442 49.9269 116.442 50.259V50.2871L116.446 50.2637ZM115.618 50.769V50.2637C115.618 50.2637 115.618 50.2357 115.618 50.2216C115.618 50.0391 115.571 49.8567 115.482 49.7023C115.388 49.5385 115.256 49.3982 115.087 49.2952C114.795 49.1268 114.132 49.1315 113.473 49.1408H113.459V51.6627H114.536C114.828 51.6627 115.115 51.5551 115.322 51.3726C115.501 51.2135 115.618 51.003 115.618 50.7597V50.769ZM129.191 53.6231V53.609V53.595M100.465 49.1595C100.235 49.1595 100.051 48.9771 100.051 48.7478C100.051 48.5186 100.235 48.3361 100.465 48.3361H105.461C105.692 48.3361 105.875 48.5186 105.875 48.7478C105.875 48.9771 105.692 49.1595 105.461 49.1595H100.465ZM103.401 58.4749C103.401 58.7042 103.217 58.8867 102.987 58.8867C102.756 58.8867 102.573 58.7042 102.573 58.4749V48.7478C102.573 48.5186 102.756 48.3361 102.987 48.3361C103.217 48.3361 103.401 48.5186 103.401 48.7478V58.4749ZM135.161 48.7478C135.161 48.5186 135.345 48.3361 135.575 48.3361C135.806 48.3361 135.989 48.5186 135.989 48.7478V54.2875C135.989 54.5448 136.116 54.8489 136.342 55.0828C136.525 55.27 136.765 55.401 137.052 55.401C137.339 55.401 137.612 55.2747 137.824 55.0594C138.017 54.8629 138.148 54.5962 138.148 54.2875V48.7478C138.148 48.5186 138.332 48.3361 138.562 48.3361C138.793 48.3361 138.976 48.5186 138.976 48.7478V54.2875C138.976 54.8255 138.751 55.2934 138.412 55.6349C138.05 56.0046 137.546 56.2245 137.052 56.2245C136.521 56.2245 136.074 55.9905 135.744 55.6536C135.373 55.27 135.156 54.746 135.156 54.2921V48.7525L135.161 48.7478ZM106.661 48.7478C106.661 48.5186 106.845 48.3361 107.075 48.3361C107.306 48.3361 107.489 48.5186 107.489 48.7478V56.9497C107.489 57.207 107.621 57.5111 107.842 57.745C108.025 57.9322 108.265 58.0632 108.552 58.0632C108.839 58.0632 109.112 57.9369 109.324 57.7217C109.517 57.5251 109.648 57.2585 109.648 56.9497V48.7478C109.648 48.5186 109.832 48.3361 110.062 48.3361C110.293 48.3361 110.476 48.5186 110.476 48.7478V56.9497C110.476 57.4877 110.251 57.9556 109.912 58.2971C109.55 58.6668 109.046 58.8867 108.552 58.8867C108.021 58.8867 107.574 58.6527 107.244 58.3159C106.873 57.9322 106.656 57.4082 106.656 56.9543V48.7525L106.661 48.7478ZM123.282 49.1595C123.052 49.1595 122.868 48.9771 122.868 48.7478C122.868 48.5186 123.052 48.3361 123.282 48.3361H128.278C128.509 48.3361 128.692 48.5186 128.692 48.7478C128.692 48.9771 128.509 49.1595 128.278 49.1595H126.218V58.4749C126.218 58.7042 126.034 58.8867 125.804 58.8867C125.573 58.8867 125.39 58.7042 125.39 58.4749V49.1595H123.287H123.282ZM137.485 58.4749C137.485 58.7042 137.302 58.8867 137.071 58.8867C136.841 58.8867 136.657 58.7042 136.657 58.4749V55.8127C136.657 55.5835 136.841 55.401 137.071 55.401C137.302 55.401 137.485 55.5835 137.485 55.8127V58.4749ZM119.34 50.2731V53.202H121.499V50.2731V50.2637C121.504 50.0672 121.457 49.8801 121.363 49.7163C121.269 49.5526 121.137 49.4122 120.968 49.3093C120.798 49.211 120.61 49.1642 120.417 49.1642C120.224 49.1642 120.036 49.211 119.867 49.3093C119.697 49.4075 119.561 49.5479 119.471 49.7163C119.382 49.8707 119.335 50.0485 119.335 50.2357C119.335 50.2497 119.335 50.2637 119.335 50.2778L119.34 50.2731ZM130.019 50.2731V53.202H132.178V50.2731V50.2637C132.183 50.0672 132.136 49.8801 132.042 49.7163C131.948 49.5526 131.816 49.4122 131.647 49.3093C131.477 49.211 131.289 49.1642 131.096 49.1642C130.903 49.1642 130.715 49.211 130.546 49.3093C130.377 49.4075 130.24 49.5479 130.151 49.7163C130.061 49.8707 130.014 50.0485 130.014 50.2357C130.014 50.2497 130.014 50.2637 130.014 50.2778L130.019 50.2731ZM122.327 53.6137V58.4749C122.327 58.7042 122.144 58.8867 121.913 58.8867C121.683 58.8867 121.499 58.7042 121.499 58.4749V54.0254H119.34V58.4749C119.34 58.7042 119.156 58.8867 118.926 58.8867C118.695 58.8867 118.512 58.7042 118.512 58.4749V50.245C118.512 49.9128 118.596 49.5947 118.752 49.3139C118.912 49.0239 119.152 48.7759 119.453 48.5981C119.754 48.4203 120.088 48.3361 120.422 48.3361C120.756 48.3361 121.09 48.425 121.391 48.5981C121.692 48.7712 121.927 49.0239 122.092 49.3139C122.252 49.604 122.337 49.9315 122.332 50.2731V53.6137H122.327ZM133.006 53.6137V58.4749C133.006 58.7042 132.823 58.8867 132.592 58.8867C132.362 58.8867 132.178 58.7042 132.178 58.4749V54.0254H130.019V53.202H132.178V54.0254H130.019V58.4749C130.019 58.7042 129.836 58.8867 129.605 58.8867C129.375 58.8867 129.191 58.7042 129.191 58.4749V50.245C129.191 49.9128 129.276 49.5947 129.431 49.3139C129.591 49.0239 129.831 48.7759 130.132 48.5981C130.433 48.4203 130.767 48.3361 131.101 48.3361C131.435 48.3361 131.769 48.425 132.066 48.5981C132.367 48.7712 132.602 49.0239 132.766 49.3139C132.926 49.604 133.011 49.9315 133.006 50.2731V53.6137ZM87.9041 50.7784V50.2731C87.9041 50.2731 87.9041 50.245 87.9041 50.231C87.9041 50.0485 87.857 49.866 87.7677 49.7116C87.6736 49.5479 87.5418 49.4075 87.3725 49.3046C87.0808 49.1362 86.4175 49.1455 85.7588 49.1502H85.7447V51.672H86.8221C87.1137 51.672 87.4007 51.5644 87.603 51.382C87.7818 51.2229 87.8994 51.0123 87.8994 50.769L87.9041 50.7784Z" fill="white"/>
<path fill-rule="evenodd" clip-rule="evenodd" d="M137.367 35.8627H138.981V41.6596H11.1638V31.6752H12.7775V40.0501H137.367V35.8627Z" fill="white"/>
<path fill-rule="evenodd" clip-rule="evenodd" d="M137.231 10.471H138.981V0H11.1638V4.76764H12.7775V1.60949H137.231V10.471Z" fill="white"/>
<path d="M1.59954 13.8304V21.5223C1.59954 24.5494 2.50281 27.09 4.31876 28.8258C5.89477 30.3324 8.17647 31.2541 11.178 31.3898V24.8536C11.178 21.4147 10.317 18.5466 8.48697 16.6143C6.93918 14.9767 4.66689 13.9755 1.59954 13.8304ZM0 21.5223V12.2209H0.79977C4.75157 12.2209 7.67309 13.4281 9.65369 15.5288C11.7801 17.7793 12.7822 21.0217 12.7822 24.8582V33.0039H11.9824C8.14824 33.0039 5.22673 31.8904 3.2179 29.9721C1.07263 27.9228 0.00470453 24.9846 0.00470453 21.527L0 21.5223Z" fill="white"/>
<path d="M14.4618 31.3382C17.3362 31.0622 19.4956 30.0095 20.9446 28.3906C22.4783 26.6782 23.2451 24.3061 23.2451 21.5222V13.8304C22.4642 13.8678 21.7397 13.9567 21.0669 14.1017C20.1543 14.2936 19.1992 14.579 18.4653 14.9533L17.6891 15.3463L17.3645 14.5415C16.9034 13.3952 16.3342 12.4174 15.5767 11.5939C14.8899 10.8453 14.0337 10.209 12.9469 9.67563C12.2083 10.0593 11.5591 10.5599 11.0086 11.1026C10.1901 11.9027 9.58318 12.7917 9.188 13.5356L7.80957 12.7309C8.27061 11.8653 8.93866 10.8968 9.88897 9.97039C10.6417 9.23583 11.5497 8.55741 12.6129 8.0755L12.9422 7.92578L13.2715 8.0755C14.7205 8.7352 15.8449 9.54463 16.7482 10.5272C17.468 11.3132 18.0419 12.1975 18.5124 13.1894C19.1616 12.9227 19.9896 12.7121 20.7376 12.5531C21.7538 12.3378 22.8547 12.2256 24.0449 12.2256H24.8447V21.5269C24.8447 24.7038 23.9414 27.4362 22.1396 29.4527C20.4459 31.3429 17.9761 32.5734 14.7346 32.9103C14.6923 32.9103 14.5041 32.9197 14.4618 32.9243V31.3476V31.3382Z" fill="white"/>
<path fill-rule="evenodd" clip-rule="evenodd" d="M47.9015 10.064V8.78674H31.5956V10.2559H45.7515L31.1628 31.3945V32.7747H48.4425V31.3056H33.261L47.9015 10.064Z" fill="white"/>
<path fill-rule="evenodd" clip-rule="evenodd" d="M55.4428 25.8501L55.9933 24.3435L60.9566 11.5612L65.8822 24.3435H57.7151L57.16 25.8501H66.4326L69.1566 32.7746H70.8455V32.5688L61.3329 8.72119H60.6131L50.9971 32.5688V32.7746H52.7189L55.4428 25.8501Z" fill="white"/>
<path fill-rule="evenodd" clip-rule="evenodd" d="M103.683 25.8501L104.234 24.3435L109.197 11.5612L114.122 24.3435H105.955L105.405 25.8501H114.673L117.397 32.7746H119.086V32.5688L109.573 8.72119H108.853L99.2374 32.5688V32.7746H100.964L103.683 25.8501Z" fill="white"/>
<path fill-rule="evenodd" clip-rule="evenodd" d="M84.9779 30.2996L75.997 8.92236H73.5177V32.6389H75.2819V22.2662L75.1078 11.0231L84.2864 32.6389H85.6789L94.8904 10.9389L94.7163 22.327V32.6389H96.4852V8.92236H93.9918L84.9779 30.2996Z" fill="white"/>
<path fill-rule="evenodd" clip-rule="evenodd" d="M123.085 11.9448L137.151 32.7746H138.981V9.05334H137.231V29.9018L123.146 9.05334H121.297V32.7746H123.085V11.9448Z" fill="white"/>
</svg>
